ModelForces
version=1
nRows=4
nColumns=157
inDegrees=no

This file contains the forces exerted on a model during a simulation.

A force is a generalized force, meaning that it can be either a force (N) or a torque (Nm).

Units are S.I. units (second, meters, Newtons, ...)
Angles are in degrees.

endheader
time	glut_med1_r	glut_med2_r	glut_med3_r	glut_min1_r	glut_min2_r	glut_min3_r	semimem_r	semiten_r	bifemlh_r	bifemsh_r	sar_r	add_long_r	add_brev_r	add_mag1_r	add_mag2_r	add_mag3_r	tfl_r	pect_r	grac_r	glut_max1_r	glut_max2_r	glut_max3_r	iliacus_r	psoas_r	quad_fem_r	gem_r	peri_r	rect_fem_r	vas_med_r	vas_int_r	vas_lat_r	med_gas_r	lat_gas_r	soleus_r	tib_post_r	flex_dig_r	flex_hal_r	tib_ant_r	per_brev_r	per_long_r	per_tert_r	ext_dig_r	ext_hal_r	glut_med1_l	glut_med2_l	glut_med3_l	glut_min1_l	glut_min2_l	glut_min3_l	semimem_l	semiten_l	bifemlh_l	bifemsh_l	sar_l	add_long_l	add_brev_l	add_mag1_l	add_mag2_l	add_mag3_l	tfl_l	pect_l	grac_l	glut_max1_l	glut_max2_l	glut_max3_l	iliacus_l	psoas_l	quad_fem_l	gem_l	peri_l	rect_fem_l	vas_med_l	vas_int_l	vas_lat_l	med_gas_l	lat_gas_l	soleus_l	tib_post_l	flex_dig_l	flex_hal_l	tib_ant_l	per_brev_l	per_long_l	per_tert_l	ext_dig_l	ext_hal_l	ercspn_r	ercspn_l	intobl_r	intobl_l	extobl_r	extobl_l	femur_lat_meniscii_r.femur_lat_r.force.X	femur_lat_meniscii_r.femur_lat_r.force.Y	femur_lat_meniscii_r.femur_lat_r.force.Z	femur_lat_meniscii_r.femur_lat_r.torque.X	femur_lat_meniscii_r.femur_lat_r.torque.Y	femur_lat_meniscii_r.femur_lat_r.torque.Z	femur_lat_meniscii_r.meniscus_lat_r.force.X	femur_lat_meniscii_r.meniscus_lat_r.force.Y	femur_lat_meniscii_r.meniscus_lat_r.force.Z	femur_lat_meniscii_r.meniscus_lat_r.torque.X	femur_lat_meniscii_r.meniscus_lat_r.torque.Y	femur_lat_meniscii_r.meniscus_lat_r.torque.Z	femur_med_meniscii_r.femur_med_r.force.X	femur_med_meniscii_r.femur_med_r.force.Y	femur_med_meniscii_r.femur_med_r.force.Z	femur_med_meniscii_r.femur_med_r.torque.X	femur_med_meniscii_r.femur_med_r.torque.Y	femur_med_meniscii_r.femur_med_r.torque.Z	femur_med_meniscii_r.meniscus_med_r.force.X	femur_med_meniscii_r.meniscus_med_r.force.Y	femur_med_meniscii_r.meniscus_med_r.force.Z	femur_med_meniscii_r.meniscus_med_r.torque.X	femur_med_meniscii_r.meniscus_med_r.torque.Y	femur_med_meniscii_r.meniscus_med_r.torque.Z	femur_med_tibia_r.tibia_upper_r.force.X	femur_med_tibia_r.tibia_upper_r.force.Y	femur_med_tibia_r.tibia_upper_r.force.Z	femur_med_tibia_r.tibia_upper_r.torque.X	femur_med_tibia_r.tibia_upper_r.torque.Y	femur_med_tibia_r.tibia_upper_r.torque.Z	femur_med_tibia_r.femur_med_r.force.X	femur_med_tibia_r.femur_med_r.force.Y	femur_med_tibia_r.femur_med_r.force.Z	femur_med_tibia_r.femur_med_r.torque.X	femur_med_tibia_r.femur_med_r.torque.Y	femur_med_tibia_r.femur_med_r.torque.Z	femur_lat_tibia_r.tibia_upper_r.force.X	femur_lat_tibia_r.tibia_upper_r.force.Y	femur_lat_tibia_r.tibia_upper_r.force.Z	femur_lat_tibia_r.tibia_upper_r.torque.X	femur_lat_tibia_r.tibia_upper_r.torque.Y	femur_lat_tibia_r.tibia_upper_r.torque.Z	femur_lat_tibia_r.femur_lat_r.force.X	femur_lat_tibia_r.femur_lat_r.force.Y	femur_lat_tibia_r.femur_lat_r.force.Z	femur_lat_tibia_r.femur_lat_r.torque.X	femur_lat_tibia_r.femur_lat_r.torque.Y	femur_lat_tibia_r.femur_lat_r.torque.Z	aACL_R	pACL_R	aPCL_R	pPCL_R	aMCL_R	mMCL_R	pMCL_R	aLCL_R	mLCL_R	pLCL_R	ground_prescribedForce_fx	ground_prescribedForce_fy	ground_prescribedForce_fz	ground_prescribedForce_px	ground_prescribedForce_py	ground_prescribedForce_pz
      0.16840676	     11.23405465	     25.42048790	    141.17873870	      3.67225267	      4.09645573	      9.67756618	    223.31708326	    201.10990335	    410.39836243	    272.36646412	     84.55741315	      6.78310045	      6.07859776	     18.50162387	     14.97403520	     82.63946888	      0.00000000	      2.34287469	    100.81324986	      7.96907228	     11.96608027	     57.95069530	      7.44604613	      7.05846323	    189.54709557	     36.68638783	     73.13061906	     17.68291710	     44.06052394	     76.43087221	     53.61994826	      0.00000000	      0.00000000	      0.00000000	      8.51442475	      0.00000000	      0.00000000	     58.30551274	      0.00000000	      0.00000000	     18.82895605	     59.49999469	     17.32142234	     11.27684515	      8.21232845	      8.83105128	      3.79425267	      4.41434942	      4.76574340	     13.97694073	      6.07947674	     12.10310588	     10.38108184	      2.16506895	      8.17183486	      5.88983197	      4.22150029	      3.58008343	      6.02730277	      5.36113401	      3.20230519	      2.23444005	      5.30224651	      8.06577417	      6.05977593	     27.30156910	     18.24911346	      5.21574629	      3.61550358	      6.76199648	     16.71084429	      9.65039074	     11.14656049	     11.97154792	     24.08130610	     11.19015360	     51.43897761	     50.81746408	      5.44473213	      5.34719672	     13.04713471	      6.97565982	     18.19761685	      2.82173649	      8.50954903	      2.66176735	     35.71288020	     35.71288020	     13.25304782	     13.25304782	     30.63769913	     30.63769913	     -3.89313069	     12.19938187	      0.10044979	     -0.29449177	     -0.13557533	      4.93124312	      3.89313069	    -12.19938187	     -0.10044979	      0.33466071	      0.10742744	      0.04407635	     -0.00025466	      0.00092163	      0.00009056	      0.00002329	     -0.00003024	      0.00037322	      0.00025466	     -0.00092163	     -0.00009056	     -0.00001765	     -0.00000502	      0.00000142	   -110.36381257	  -1092.20158477	    439.94679661	    -28.27341918	     -0.62474718	     -8.77200738	    110.36381257	   1092.20158477	   -439.94679661	     17.80194271	    175.31552350	    439.82838087	    -46.09702197	   -369.10661931	   -107.64934062	     13.59286051	     -0.75537669	     -3.23053397	     46.09702197	    369.10661931	    107.64934062	     -9.09948901	    -42.21105706	    148.62913996	      0.00000000	      0.00000000	   1526.92658474	   1094.86741503	      9.65044212	      6.33451332	      0.00000000	      0.00000000	      0.00000000	      0.00000000	      0.00000000	      0.00000000	      0.00000000	      0.00000000	      0.00000000	      0.00000000
      0.16845810	     11.23152976	     25.41892327	    141.17744183	      3.67151466	      4.09561059	      9.67659941	    223.58884213	    201.30078179	    410.68450337	    272.62371151	     84.56770833	      6.78167273	      6.07738604	     18.50059627	     14.97308281	     82.63843201	      0.00000000	      2.34240275	    100.85872474	      7.96736261	     11.96350787	     57.94937744	      7.44448784	      7.05694466	    189.54646453	     36.68605993	     73.12971833	     17.67286981	     44.07276330	     76.45526854	     53.63665183	      0.00000000	      0.00000000	      0.00000000	      8.53905459	      0.00000000	      0.00000000	     58.56043239	      0.00000000	      0.00000000	     18.82934880	     59.51391183	     17.32791195	     11.27430993	      8.21060585	      8.82917661	      3.79348952	      4.41351471	      4.76467437	     13.97347937	      6.07811982	     12.10015309	     10.37894590	      2.16463552	      8.17010097	      5.88865836	      4.22061877	      3.57931844	      6.02591586	      5.36027374	      3.20165651	      2.23398486	      5.30113009	      8.06407199	      6.05847705	     27.29839687	     18.24549628	      5.21467434	      3.61498054	      6.76027897	     16.70679470	      9.64830655	     11.14411415	     11.96892237	     24.07509243	     11.18726006	     51.42587183	     50.81181358	      5.44326915	      5.34577581	     13.04403370	      6.97391604	     18.19390802	      2.82117917	      8.50738335	      2.66109705	     35.70568097	     35.70568097	     13.25015995	     13.25015995	     30.63508257	     30.63508257	     -3.64297095	     12.46884939	      0.11048973	     -0.30168410	     -0.13350348	      5.04315253	      3.64297095	    -12.46884939	     -0.11048973	      0.34304454	      0.10061786	      0.03171429	     -0.00026456	      0.00095740	      0.00009397	      0.00002419	     -0.00003137	      0.00038768	      0.00026456	     -0.00095740	     -0.00009397	     -0.00001834	     -0.00000522	      0.00000151	   -110.57836832	  -1095.26603406	    441.82259056	    -28.37496420	     -0.62001020	     -8.76980182	    110.57836832	   1095.26603406	   -441.82259056	     17.85594300	    176.06142251	    441.05155416	    -46.34008259	   -369.97512151	   -107.71911075	     13.61940228	     -0.76506692	     -3.23049395	     46.34008259	    369.97512151	    107.71911075	     -9.11869967	    -42.23143142	    148.97131615	      0.00000000	      0.00000000	   1527.57189290	   1095.55200114	      9.55404271	      6.32699540	      0.00000000	      0.00000000	      0.00000000	      0.00000000	      0.00000000	      0.00000000	      0.00000000	      0.00000000	      0.00000000	      0.00000000
      0.16848376	     11.23026797	     25.41814136	    141.17679373	      3.67114584	      4.09518823	      9.67611628	    223.72492715	    201.39615696	    410.82838189	    272.75197560	     84.57267722	      6.78095925	      6.07678049	     18.50008274	     14.97260686	     82.63791384	      0.00000000	      2.34216691	    100.88125288	      7.96650822	     11.96222233	     57.94871885	      7.44370911	      7.05618577	    189.54614917	     36.68589606	     73.12926820	     17.66785453	     44.07875137	     76.46732153	     53.64494622	      0.00000000	      0.00000000	      0.00000000	      8.55129002	      0.00000000	      0.00000000	     58.66857736	      0.00000000	      0.00000000	     18.82955976	     59.52087446	     17.33119281	     11.27304297	      8.20974500	      8.82823976	      3.79310814	      4.41309757	      4.76414013	     13.97174956	      6.07744172	     12.09867745	     10.37787847	      2.16441891	      8.16923448	      5.88807185	      4.22017824	      3.57893614	      6.02522276	      5.35984383	      3.20133234	      2.23375737	      5.30057217	      8.06322134	      6.05782795	     27.29681159	     18.24368864	      5.21413864	      3.61471915	      6.75942063	     16.70477094	      9.64726500	     11.14289161	     11.96761028	     24.07198706	     11.18581398	     51.41932214	     50.80898978	      5.44253803	      5.34506571	     13.04248399	      6.97304459	     18.19205453	      2.82090066	      8.50630100	      2.66076205	     35.70208319	     35.70208319	     13.24871676	     13.24871676	     30.63377499	     30.63377499	     -3.75376002	     12.74791884	      0.11715517	     -0.30860762	     -0.13894514	      5.15559054	      3.75376002	    -12.74791884	     -0.11715517	      0.35105555	      0.10375252	      0.03386909	     -0.00026956	      0.00097547	      0.00009569	      0.00002465	     -0.00003194	      0.00039499	      0.00026956	     -0.00097547	     -0.00009569	     -0.00001868	     -0.00000532	      0.00000155	   -110.83619355	  -1096.24328567	    442.59319999	    -28.41532200	     -0.61548789	     -8.77184755	    110.83619355	   1096.24328567	   -442.59319999	     17.87609697	    176.36522040	    441.44080098	    -46.50157139	   -370.29983905	   -107.81932284	     13.63250893	     -0.77078386	     -3.23118874	     46.50157139	    370.29983905	    107.81932284	     -9.12641913	    -42.26686087	    149.09829535	      0.00000000	      0.00000000	   1527.89778458	   1095.90193396	      9.51652288	      6.33296094	      0.00000000	      0.00000000	      0.00000000	      0.00000000	      0.00000000	      0.00000000	      0.00000000	      0.00000000	      0.00000000	      0.00000000
      0.16855279	     11.22687656	     25.41603975	    141.17505176	      3.67015453	      4.09405304	      9.67481774	    224.09175968	    201.65258497	    411.21822951	    273.09663534	     84.58565091	      6.77904155	      6.07515290	     18.49870247	     14.97132763	     82.63652111	      0.00000000	      2.34153300	    100.94127372	      7.96421180	     11.95876709	     57.94694869	      7.44161604	      7.05414607	    189.54530155	     36.68545562	     73.12805838	     17.65438744	     44.09440334	     76.49913767	     53.66701653	      0.00000000	      0.00000000	      0.00000000	      8.58394338	      0.00000000	      0.00000000	     58.89691160	      0.00000000	      0.00000000	     18.83015499	     59.53959549	     17.34009791	     11.26963768	      8.20743122	      8.82572172	      3.79208306	      4.41197640	      4.76270421	     13.96710008	      6.07561912	     12.09471117	     10.37500947	      2.16383672	      8.16690554	      5.88649543	      4.21899419	      3.57790862	      6.02335987	      5.35868833	      3.20046102	      2.23314595	      5.29907260	      8.06093499	      6.05608330	     27.29255072	     18.23883015	      5.21269880	      3.61401661	      6.75711352	     16.69933142	      9.64446556	     11.13960573	     11.96408372	     24.06364000	     11.18192699	     51.40171734	     50.80139999	      5.44057286	      5.34315709	     13.03831868	      6.97070226	     18.18707263	      2.82015208	      8.50339164	      2.65986157	     35.69241308	     35.69241308	     13.24483778	     13.24483778	     30.63026051	     30.63026051	     -3.94490083	     13.30696773	      0.12682155	     -0.32219426	     -0.14741165	      5.38160573	      3.94490083	    -13.30696773	     -0.12682155	      0.36673142	      0.10897755	      0.03652763	     -0.00028299	      0.00102399	      0.00010032	      0.00002588	     -0.00003347	      0.00041461	      0.00028299	     -0.00102399	     -0.00010032	     -0.00001961	     -0.00000558	      0.00000168	   -111.38651599	  -1098.29495561	    442.84482937	    -28.43705975	     -0.59950049	     -8.77331085	    111.38651599	   1098.29495561	   -442.84482937	     17.89886971	    176.45444570	    442.25875369	    -46.68209205	   -372.30064024	   -108.26164842	     13.70222598	     -0.77902820	     -3.22844448	     46.68209205	    372.30064024	    108.26164842	     -9.17277030	    -42.43727183	    149.89175450	      0.00000000	      0.00000000	   1528.78473527	   1096.86341706	      9.46309063	      6.39009314	      0.00000000	      0.00000000	      0.00000000	      0.00000000	      0.00000000	      0.00000000	      0.00000000	      0.00000000	      0.00000000	      0.00000000
